<?xml version="1.0" encoding="UTF-8" standalone="no"?>
<svg
   viewBox="0 0 48 48"
   version="1.1"
   id="svg4"
   sodipodi:docname="arrow-rotate-right-solid.svg"
   width="48"
   height="48"
   inkscape:version="1.2.1 (9c6d41e410, 2022-07-14)"
   inkscape:export-filename="func_reset.png"
   inkscape:export-xdpi="96"
   inkscape:export-ydpi="96"
   xmlns:inkscape="http://www.inkscape.org/namespaces/inkscape"
   xmlns:sodipodi="http://sodipodi.sourceforge.net/DTD/sodipodi-0.dtd"
   xmlns="http://www.w3.org/2000/svg"
   xmlns:svg="http://www.w3.org/2000/svg">
  <defs
     id="defs8" />
  <sodipodi:namedview
     id="namedview6"
     pagecolor="#ffffff"
     bordercolor="#111111"
     borderopacity="1"
     inkscape:showpageshadow="0"
     inkscape:pageopacity="0"
     inkscape:pagecheckerboard="1"
     inkscape:deskcolor="#d1d1d1"
     showgrid="false"
     inkscape:zoom="1.7011719"
     inkscape:cx="122.56257"
     inkscape:cy="68.482204"
     inkscape:window-width="1918"
     inkscape:window-height="1040"
     inkscape:window-x="1920"
     inkscape:window-y="39"
     inkscape:window-maximized="1"
     inkscape:current-layer="svg4" />
  <!--! Font Awesome Pro 6.2.0 by @fontawesome - https://fontawesome.com License - https://fontawesome.com/license (Commercial License) Copyright 2022 Fonticons, Inc. -->
  <path
     d="m 31.90771,17.793437 h -3.25198 c -1.144335,0 -2.068854,0.92452 -2.068854,2.068855 0,1.144334 0.924519,2.068854 2.068854,2.068854 h 8.275416 C 38.075481,21.931146 39,21.006626 39,19.862292 v -8.275417 c 0,-1.144334 -0.924519,-2.0688535 -2.068854,-2.0688535 -1.144335,0 -2.068854,0.9245185 -2.068854,2.0688535 v 3.310167 l -1.13787,-1.13787 c -5.657023,-5.6570225 -14.824632,-5.6570225 -20.481655,0 -5.6570229,5.657023 -5.6570229,14.824632 0,20.481655 5.657023,5.657023 14.824632,5.657023 20.481655,0 0.808146,-0.808146 0.808146,-2.120575 0,-2.928721 -0.808146,-0.808146 -2.120575,-0.808146 -2.928721,0 -4.040731,4.04073 -10.589947,4.04073 -14.630678,0 -4.04073,-4.040731 -4.04073,-10.589947 0,-14.630678 4.040731,-4.04073 10.589947,-4.04073 14.630678,0 z"
     id="path2"
     style="stroke-width:0.0646517" />
</svg>
