<?xml version="1.0" encoding="UTF-8" standalone="no"?>
<svg
   viewBox="0 0 48 48"
   version="1.1"
   id="svg12"
   sodipodi:docname="func_shutdown.svg"
   width="48"
   height="48"
   inkscape:version="1.2.1 (9c6d41e410, 2022-07-14)"
   xmlns:inkscape="http://www.inkscape.org/namespaces/inkscape"
   xmlns:sodipodi="http://sodipodi.sourceforge.net/DTD/sodipodi-0.dtd"
   xmlns="http://www.w3.org/2000/svg"
   xmlns:svg="http://www.w3.org/2000/svg">
  <defs
     id="defs16" />
  <sodipodi:namedview
     id="namedview14"
     pagecolor="#ffffff"
     bordercolor="#111111"
     borderopacity="1"
     inkscape:showpageshadow="0"
     inkscape:pageopacity="0"
     inkscape:pagecheckerboard="1"
     inkscape:deskcolor="#d1d1d1"
     showgrid="false"
     inkscape:zoom="1.7011719"
     inkscape:cx="166.062"
     inkscape:cy="163.12284"
     inkscape:window-width="1918"
     inkscape:window-height="1040"
     inkscape:window-x="0"
     inkscape:window-y="39"
     inkscape:window-maximized="1"
     inkscape:current-layer="svg12" />
  <!--! Font Awesome Pro 6.2.0 by @fontawesome - https://fontawesome.com License - https://fontawesome.com/license (Commercial License) Copyright 2022 Fonticons, Inc. -->
  <path
     d="M 25.935484,10.935484 C 25.935484,9.8649194 25.070565,9 24,9 22.929436,9 22.064516,9.8649194 22.064516,10.935484 v 13.548387 c 0,1.070564 0.86492,1.935484 1.935484,1.935484 1.070565,0 1.935484,-0.86492 1.935484,-1.935484 z m -8.739919,5.358871 c 0.82258,-0.683468 0.931451,-1.905242 0.247983,-2.727823 -0.683467,-0.82258 -1.905242,-0.931451 -2.727822,-0.247984 -3.193549,2.661291 -5.231855,6.67742 -5.231855,11.165323 C 9.483871,32.497984 15.985887,39 24,39 c 8.014113,0 14.516129,-6.502016 14.516129,-14.516129 0,-4.487903 -2.044355,-8.504032 -5.237903,-11.165323 -0.822581,-0.683467 -2.044355,-0.568548 -2.727823,0.247984 -0.683467,0.816533 -0.568548,2.044355 0.247984,2.727823 2.352823,1.953629 3.840726,4.899193 3.840726,8.189516 0,5.879032 -4.766129,10.645161 -10.645161,10.645161 -5.879033,0 -10.645162,-4.766129 -10.645162,-10.645161 0,-3.290323 1.493952,-6.235887 3.840726,-8.189516 z"
     id="path10"
     style="stroke-width:0.0604839" />
</svg>
