<?xml version="1.0" encoding="UTF-8" standalone="no"?>
<svg
   viewBox="0 0 48 48"
   version="1.1"
   id="svg12"
   sodipodi:docname="func_firmware.svg"
   width="48"
   height="48"
   inkscape:version="1.2.1 (9c6d41e410, 2022-07-14)"
   inkscape:export-filename="func_firmware.png"
   inkscape:export-xdpi="96"
   inkscape:export-ydpi="96"
   xmlns:inkscape="http://www.inkscape.org/namespaces/inkscape"
   xmlns:sodipodi="http://sodipodi.sourceforge.net/DTD/sodipodi-0.dtd"
   xmlns="http://www.w3.org/2000/svg"
   xmlns:svg="http://www.w3.org/2000/svg">
  <defs
     id="defs16" />
  <sodipodi:namedview
     id="namedview14"
     pagecolor="#ffffff"
     bordercolor="#111111"
     borderopacity="1"
     inkscape:showpageshadow="0"
     inkscape:pageopacity="0"
     inkscape:pagecheckerboard="1"
     inkscape:deskcolor="#d1d1d1"
     showgrid="false"
     inkscape:zoom="1.7011719"
     inkscape:cx="167.23766"
     inkscape:cy="164.29851"
     inkscape:window-width="1918"
     inkscape:window-height="1040"
     inkscape:window-x="0"
     inkscape:window-y="39"
     inkscape:window-maximized="0"
     inkscape:current-layer="svg12" />
  <!--! Font Awesome Pro 6.2.0 by @fontawesome - https://fontawesome.com License - https://fontawesome.com/license (Commercial License) Copyright 2022 Fonticons, Inc. -->
  <path
     d="M 19.3125,10.40625 C 19.3125,9.626953 18.685546,9 17.90625,9 17.126953,9 16.5,9.626953 16.5,10.40625 V 12.75 c -2.06836,0 -3.75,1.681641 -3.75,3.75 H 10.40625 C 9.626953,16.5 9,17.126953 9,17.90625 9,18.685547 9.626953,19.3125 10.40625,19.3125 H 12.75 v 3.28125 H 10.40625 C 9.626953,22.59375 9,23.220703 9,24 c 0,0.779297 0.626953,1.40625 1.40625,1.40625 H 12.75 V 28.6875 H 10.40625 C 9.626953,28.6875 9,29.314453 9,30.09375 9,30.873047 9.626953,31.5 10.40625,31.5 H 12.75 c 0,2.068359 1.68164,3.75 3.75,3.75 v 2.34375 C 16.5,38.373047 17.126953,39 17.90625,39 18.685546,39 19.3125,38.373047 19.3125,37.59375 V 35.25 h 3.28125 v 2.34375 C 22.59375,38.373047 23.220703,39 24,39 c 0.779297,0 1.40625,-0.626953 1.40625,-1.40625 V 35.25 h 3.28125 v 2.34375 C 28.6875,38.373047 29.314453,39 30.09375,39 30.873047,39 31.5,38.373047 31.5,37.59375 V 35.25 c 2.068359,0 3.75,-1.681641 3.75,-3.75 h 2.34375 C 38.373047,31.5 39,30.873047 39,30.09375 39,29.314453 38.373047,28.6875 37.59375,28.6875 H 35.25 v -3.28125 h 2.34375 C 38.373047,25.40625 39,24.779297 39,24 39,23.220703 38.373047,22.59375 37.59375,22.59375 H 35.25 V 19.3125 h 2.34375 C 38.373047,19.3125 39,18.685547 39,17.90625 39,17.126953 38.373047,16.5 37.59375,16.5 H 35.25 c 0,-2.068359 -1.681641,-3.75 -3.75,-3.75 V 10.40625 C 31.5,9.626953 30.873047,9 30.09375,9 29.314453,9 28.6875,9.626953 28.6875,10.40625 V 12.75 H 25.40625 V 10.40625 C 25.40625,9.626953 24.779297,9 24,9 23.220703,9 22.59375,9.626953 22.59375,10.40625 V 12.75 H 19.3125 Z M 18.375,16.5 h 11.25 c 1.037109,0 1.875,0.83789 1.875,1.875 v 11.25 c 0,1.037109 -0.837891,1.875 -1.875,1.875 H 18.375 C 17.33789,31.5 16.5,30.662109 16.5,29.625 v -11.25 c 0,-1.03711 0.83789,-1.875 1.875,-1.875 z m 11.25,1.875 h -11.25 v 11.25 h 11.25 z"
     id="path2"
     style="stroke-width:0.0585938" />
</svg>
