<?xml version="1.0" encoding="UTF-8" standalone="no"?>
<svg
   viewBox="0 0 128 128"
   version="1.1"
   id="svg4"
   sodipodi:docname="tool_memtest.svg"
   width="128"
   height="128"
   inkscape:version="1.2.1 (9c6d41e410, 2022-07-14)"
   inkscape:export-filename="tool_memtest.png"
   inkscape:export-xdpi="96"
   inkscape:export-ydpi="96"
   xmlns:inkscape="http://www.inkscape.org/namespaces/inkscape"
   xmlns:sodipodi="http://sodipodi.sourceforge.net/DTD/sodipodi-0.dtd"
   xmlns="http://www.w3.org/2000/svg"
   xmlns:svg="http://www.w3.org/2000/svg">
  <defs
     id="defs8" />
  <sodipodi:namedview
     id="namedview6"
     pagecolor="#ffffff"
     bordercolor="#111111"
     borderopacity="1"
     inkscape:showpageshadow="0"
     inkscape:pageopacity="0"
     inkscape:pagecheckerboard="1"
     inkscape:deskcolor="#d1d1d1"
     showgrid="false"
     inkscape:zoom="1.7011719"
     inkscape:cx="288.33065"
     inkscape:cy="162.53502"
     inkscape:window-width="1918"
     inkscape:window-height="1040"
     inkscape:window-x="1920"
     inkscape:window-y="39"
     inkscape:window-maximized="1"
     inkscape:current-layer="svg4" />
  <!--! Font Awesome Pro 6.2.0 by @fontawesome - https://fontawesome.com License - https://fontawesome.com/license (Commercial License) Copyright 2022 Fonticons, Inc. -->
  <path
     d="M 34.833333,39 C 30.236979,39 26.5,42.736979 26.5,47.333333 v 0.963542 c 0,0.885417 0.572917,1.640625 1.315104,2.122396 1.71875,1.119791 2.851563,3.046875 2.851563,5.247396 0,2.20052 -1.132813,4.127604 -2.851563,5.247395 C 27.072917,61.395833 26.5,62.151042 26.5,63.036458 v 9.296875 h 75 v -9.296875 c 0,-0.885416 -0.57292,-1.640625 -1.3151,-2.122396 -1.718754,-1.119791 -2.851567,-3.046875 -2.851567,-5.247395 0,-2.200521 1.132813,-4.127605 2.851567,-5.247396 C 100.92708,49.9375 101.5,49.182292 101.5,48.296875 V 47.333333 C 101.5,42.736979 97.763021,39 93.166667,39 Z M 101.5,76.5 h -75 v 8.33333 C 26.5,87.13802 28.361979,89 30.666667,89 h 6.25 v -4.16667 c 0,-1.14583 0.9375,-2.08333 2.083333,-2.08333 1.145833,0 2.083333,0.9375 2.083333,2.08333 V 89 h 12.5 v -4.16667 c 0,-1.14583 0.9375,-2.08333 2.083334,-2.08333 1.145833,0 2.083333,0.9375 2.083333,2.08333 V 89 h 12.5 v -4.16667 c 0,-1.14583 0.9375,-2.08333 2.083333,-2.08333 1.145834,0 2.083334,0.9375 2.083334,2.08333 V 89 h 12.5 v -4.16667 c 0,-1.14583 0.9375,-2.08333 2.083333,-2.08333 1.145833,0 2.083333,0.9375 2.083333,2.08333 V 89 h 6.25 C 99.638021,89 101.5,87.13802 101.5,84.83333 Z m -50,-25 v 8.333333 C 51.5,62.138021 49.638021,64 47.333333,64 45.028646,64 43.166667,62.138021 43.166667,59.833333 V 51.5 c 0,-2.304688 1.861979,-4.166667 4.166666,-4.166667 2.304688,0 4.166667,1.861979 4.166667,4.166667 z m 16.666667,0 v 8.333333 C 68.166667,62.138021 66.304687,64 64,64 61.695313,64 59.833333,62.138021 59.833333,59.833333 V 51.5 c 0,-2.304688 1.86198,-4.166667 4.166667,-4.166667 2.304687,0 4.166667,1.861979 4.166667,4.166667 z m 16.666666,0 v 8.333333 C 84.833333,62.138021 82.971354,64 80.666667,64 78.361979,64 76.5,62.138021 76.5,59.833333 V 51.5 c 0,-2.304688 1.861979,-4.166667 4.166667,-4.166667 2.304687,0 4.166666,1.861979 4.166666,4.166667 z"
     id="path2"
     style="stroke-width:0.130208" />
</svg>
