<?xml version="1.0" encoding="UTF-8" standalone="no"?>
<svg
   viewBox="0 0 128 128"
   version="1.1"
   id="svg218"
   sodipodi:docname="vol_external.svg"
   width="128"
   height="128"
   inkscape:version="1.2.1 (9c6d41e410, 2022-07-14)"
   xmlns:inkscape="http://www.inkscape.org/namespaces/inkscape"
   xmlns:sodipodi="http://sodipodi.sourceforge.net/DTD/sodipodi-0.dtd"
   xmlns="http://www.w3.org/2000/svg"
   xmlns:svg="http://www.w3.org/2000/svg">
  <defs
     id="defs222" />
  <sodipodi:namedview
     id="namedview220"
     pagecolor="#ffffff"
     bordercolor="#111111"
     borderopacity="1"
     inkscape:showpageshadow="0"
     inkscape:pageopacity="0"
     inkscape:pagecheckerboard="1"
     inkscape:deskcolor="#d1d1d1"
     showgrid="false"
     inkscape:zoom="1.7011719"
     inkscape:cx="229.54765"
     inkscape:cy="68.482204"
     inkscape:window-width="1918"
     inkscape:window-height="1040"
     inkscape:window-x="1920"
     inkscape:window-y="39"
     inkscape:window-maximized="1"
     inkscape:current-layer="svg218" />
  <!--! Font Awesome Pro 6.2.0 by @fontawesome - https://fontawesome.com License - https://fontawesome.com/license (Commercial License) Copyright 2022 Fonticons, Inc. -->
  <path
     d="m 63.993975,26.5 c 0.362425,0 0.713175,0.19875 0.87685,0.52611 L 71.1257,37.443103 c 0.0935,0.163674 0.16375,0.327357 0.16375,0.52611 0,0.163675 -0.035,0.362432 -0.1285,0.52611 -0.19875,0.327357 -0.526125,0.526112 -0.911925,0.526112 H 66.0869 v 27.907248 c 4.629775,-2.95791 12.49805,-4.734995 12.49805,-8.137178 v -3.12159 h -3.133275 c -0.584575,0 -1.040525,-0.455963 -1.040525,-1.04053 V 44.212392 c 0,-0.584567 0.45595,-1.04053 1.040525,-1.04053 h 10.417 c 0.58455,0 1.040525,0.455963 1.040525,1.04053 v 10.416993 c 0,0.584567 -0.455975,1.04053 -1.040525,1.04053 h -3.1216 v 3.12159 c 0,8.815275 -16.660175,9.481683 -16.660175,14.57911 v 11.726423 c 3.57755,0.947 6.254875,4.197195 6.254875,8.06703 -0.0125,4.5947 -3.752925,8.335932 -8.347625,8.335932 -4.5947,0 -8.335925,-3.741232 -8.335925,-8.335932 0,-3.869835 2.665625,-7.131723 6.254875,-8.067031 0,-4.571317 1.110675,-5.132502 -7.061575,-8.721745 -10.417,-4.68823 -9.5986,-6.792672 -9.5986,-12.731877 -2.4435,-0.876853 -4.162125,-3.156665 -4.162125,-5.89244 0,-3.448948 2.794225,-6.254873 6.254875,-6.254873 3.460625,0 6.254875,2.794233 6.254875,6.254873 0,2.735775 -1.730325,5.015587 -4.162125,5.89244 v 3.48402 c 0,3.402182 7.879975,5.179267 12.49805,8.13718 V 39.009743 H 57.77435 c -0.3858,0 -0.713175,-0.19875 -0.911925,-0.526111 -0.19875,-0.327357 -0.16375,-0.748247 0.035,-1.040529 L 63.1523,27.02611 C 63.2808,26.698752 63.63165,26.5 63.994075,26.5 Z"
     id="path216"
     style="stroke-width:0.116913" />
</svg>
